<?xml version="1.0" encoding="UTF-8" standalone="no"?>
<!DOCTYPE svg PUBLIC "-//W3C//DTD SVG 1.1//EN"
 "http://www.w3.org/Graphics/SVG/1.1/DTD/svg11.dtd">
<!-- Generated by graphviz version 2.40.1 (20161225.0304)
 -->
<!-- Title: my_table Pages: 1 -->
<svg width="288pt" height="225pt"
 viewBox="0.00 0.00 288.00 225.00" xmlns="http://www.w3.org/2000/svg" xmlns:xlink="http://www.w3.org/1999/xlink">
<g id="graph0" class="graph" transform="scale(1 1) rotate(0) translate(4 221)">
<title>my_table</title>
<polygon fill="#ffffff" stroke="transparent" points="-4,4 -4,-221 284,-221 284,4 -4,4"/>
<!-- my_table -->
<g id="node1" class="node">
<title>my_table</title>
<polygon fill="#efefef" stroke="transparent" points="46,-135.5 46,-170.5 234,-170.5 234,-135.5 46,-135.5"/>
<polygon fill="none" stroke="#000000" points="46,-135.5 46,-170.5 234,-170.5 234,-135.5 46,-135.5"/>
<text text-anchor="start" x="52.5361" y="-148.3" font-family="Arial Bold" font-size="18.00" fill="#000000">my_table</text>
<text text-anchor="start" x="125.5495" y="-148.3" font-family="Arial" font-size="14.00" fill="#000000"> </text>
<text text-anchor="start" x="129.4401" y="-148.3" font-family="Arial" font-size="14.00" fill="#666666">[BASIC TABLE]</text>
<polygon fill="none" stroke="#000000" points="46,-105.5 46,-135.5 234,-135.5 234,-105.5 46,-105.5"/>
<text text-anchor="start" x="53" y="-116.9" font-family="Arial" font-size="14.00" fill="#000000">DecimalValue </text>
<text text-anchor="start" x="143.2272" y="-116.9" font-family="Arial" font-size="14.00" fill="#666666">[N]</text>
<polygon fill="none" stroke="#000000" points="46,-75.5 46,-105.5 234,-105.5 234,-75.5 46,-75.5"/>
<text text-anchor="start" x="53" y="-86.9" font-family="Arial" font-size="14.00" fill="#000000">NumberSK </text>
<text text-anchor="start" x="125.3394" y="-86.9" font-family="Arial" font-size="14.00" fill="#666666">[N]</text>
<polygon fill="none" stroke="#000000" points="46,-45.5 46,-75.5 234,-75.5 234,-45.5 46,-45.5"/>
<text text-anchor="start" x="53" y="-56.9" font-family="Arial" font-size="14.00" fill="#000000">StringPK </text>
<text text-anchor="start" x="112.1234" y="-56.9" font-family="Arial" font-size="14.00" fill="#666666">[S]</text>
<polygon fill="none" stroke="#000000" stroke-width="3" points="44.5,-44.5 44.5,-172.5 235.5,-172.5 235.5,-44.5 44.5,-44.5"/>
</g>
</g>
</svg>
