<?xml version="1.0" encoding="UTF-8" standalone="no"?>
<!DOCTYPE svg PUBLIC "-//W3C//DTD SVG 1.1//EN"
 "http://www.w3.org/Graphics/SVG/1.1/DTD/svg11.dtd">
<!-- Generated by graphviz version 2.40.1 (20161225.0304)
 -->
<!-- Title: Amazon DynamoDB (ap&#45;northeast&#45;1) Pages: 1 -->
<svg width="576pt" height="219pt"
 viewBox="0.00 0.00 575.50 219.00" xmlns="http://www.w3.org/2000/svg" xmlns:xlink="http://www.w3.org/1999/xlink">
<g id="graph0" class="graph" transform="scale(1 1) rotate(0) translate(4 215)">
<title>Amazon DynamoDB (ap&#45;northeast&#45;1)</title>
<polygon fill="#ffffff" stroke="transparent" points="-4,4 -4,-215 571.5,-215 571.5,4 -4,4"/>
<!-- foo_table -->
<g id="node1" class="node">
<title>foo_table</title>
<polygon fill="#efefef" stroke="transparent" points="43.5,-102.5 43.5,-137.5 232.5,-137.5 232.5,-102.5 43.5,-102.5"/>
<polygon fill="none" stroke="#000000" points="43.5,-102.5 43.5,-137.5 232.5,-137.5 232.5,-102.5 43.5,-102.5"/>
<text text-anchor="start" x="50.0249" y="-115.3" font-family="Arial Bold" font-size="18.00" fill="#000000">foo_table</text>
<text text-anchor="start" x="124.0607" y="-115.3" font-family="Arial" font-size="14.00" fill="#000000"> </text>
<text text-anchor="start" x="127.9513" y="-115.3" font-family="Arial" font-size="14.00" fill="#666666">[BASIC TABLE]</text>
<polygon fill="none" stroke="#000000" points="43.5,-72.5 43.5,-102.5 232.5,-102.5 232.5,-72.5 43.5,-72.5"/>
<text text-anchor="start" x="50.5" y="-83.9" font-family="Arial" font-size="14.00" fill="#000000">id </text>
<text text-anchor="start" x="65.2798" y="-83.9" font-family="Arial" font-size="14.00" fill="#666666">[S]</text>
</g>
<!-- my_table -->
<g id="node2" class="node">
<title>my_table</title>
<polygon fill="#efefef" stroke="transparent" points="336.5,-132.5 336.5,-167.5 524.5,-167.5 524.5,-132.5 336.5,-132.5"/>
<polygon fill="none" stroke="#000000" points="336.5,-132.5 336.5,-167.5 524.5,-167.5 524.5,-132.5 336.5,-132.5"/>
<text text-anchor="start" x="343.0361" y="-145.3" font-family="Arial Bold" font-size="18.00" fill="#000000">my_table</text>
<text text-anchor="start" x="416.0495" y="-145.3" font-family="Arial" font-size="14.00" fill="#000000"> </text>
<text text-anchor="start" x="419.9401" y="-145.3" font-family="Arial" font-size="14.00" fill="#666666">[BASIC TABLE]</text>
<polygon fill="none" stroke="#000000" points="336.5,-102.5 336.5,-132.5 524.5,-132.5 524.5,-102.5 336.5,-102.5"/>
<text text-anchor="start" x="343.5" y="-113.9" font-family="Arial" font-size="14.00" fill="#000000">DecimalValue </text>
<text text-anchor="start" x="433.7272" y="-113.9" font-family="Arial" font-size="14.00" fill="#666666">[N]</text>
<polygon fill="none" stroke="#000000" points="336.5,-72.5 336.5,-102.5 524.5,-102.5 524.5,-72.5 336.5,-72.5"/>
<text text-anchor="start" x="343.5" y="-83.9" font-family="Arial" font-size="14.00" fill="#000000">NumberSK </text>
<text text-anchor="start" x="415.8394" y="-83.9" font-family="Arial" font-size="14.00" fill="#666666">[N]</text>
<polygon fill="none" stroke="#000000" points="336.5,-42.5 336.5,-72.5 524.5,-72.5 524.5,-42.5 336.5,-42.5"/>
<text text-anchor="start" x="343.5" y="-53.9" font-family="Arial" font-size="14.00" fill="#000000">StringPK </text>
<text text-anchor="start" x="402.6234" y="-53.9" font-family="Arial" font-size="14.00" fill="#666666">[S]</text>
</g>
</g>
</svg>
